<mxfile host="app.diagrams.net" modified="2022-07-12T08:53:13.402Z" agent="5.0 (Windows)" etag="rWUXqBjxbjQchMxb-BrJ" version="20.0.4" type="github" pages="2">
  <diagram id="eFgsTeEYelKQ_ePK37qf" name="Возможные статусы">
    <mxGraphModel dx="572" dy="1852" grid="1" gridSize="10" guides="1" tooltips="1" connect="1" arrows="1" fold="1" page="1" pageScale="1" pageWidth="850" pageHeight="1100" math="0" shadow="0">
      <root>
        <mxCell id="0" />
        <mxCell id="1" parent="0" />
        <mxCell id="c5JYzMj96R1MtIDLFCYo-1" style="edgeStyle=orthogonalEdgeStyle;rounded=0;orthogonalLoop=1;jettySize=auto;html=1;exitX=0.5;exitY=1;exitDx=0;exitDy=0;entryX=0.5;entryY=0;entryDx=0;entryDy=0;" edge="1" parent="1" source="c5JYzMj96R1MtIDLFCYo-2" target="c5JYzMj96R1MtIDLFCYo-4">
          <mxGeometry relative="1" as="geometry" />
        </mxCell>
        <mxCell id="c5JYzMj96R1MtIDLFCYo-2" value="" style="ellipse;fillColor=#ffffff;strokeColor=#000000;" vertex="1" parent="1">
          <mxGeometry x="1560" y="-20" width="30" height="30" as="geometry" />
        </mxCell>
        <mxCell id="c5JYzMj96R1MtIDLFCYo-3" value="" style="edgeStyle=orthogonalEdgeStyle;rounded=0;orthogonalLoop=1;jettySize=auto;html=1;" edge="1" parent="1" source="c5JYzMj96R1MtIDLFCYo-4" target="c5JYzMj96R1MtIDLFCYo-8">
          <mxGeometry relative="1" as="geometry" />
        </mxCell>
        <mxCell id="c5JYzMj96R1MtIDLFCYo-4" value="&lt;div&gt;Выбираются переходы между статусами, где начальный статус равен текущему статусу&lt;br&gt;&lt;/div&gt;&lt;div&gt;&lt;br&gt;&lt;/div&gt;" style="html=1;align=center;verticalAlign=top;rounded=1;absoluteArcSize=1;arcSize=10;dashed=0;whiteSpace=wrap;" vertex="1" parent="1">
          <mxGeometry x="1502.5" y="55" width="145" height="75" as="geometry" />
        </mxCell>
        <mxCell id="c5JYzMj96R1MtIDLFCYo-5" value="" style="edgeStyle=orthogonalEdgeStyle;rounded=0;orthogonalLoop=1;jettySize=auto;html=1;exitX=1;exitY=0.5;exitDx=0;exitDy=0;" edge="1" parent="1" source="c5JYzMj96R1MtIDLFCYo-53" target="c5JYzMj96R1MtIDLFCYo-10">
          <mxGeometry relative="1" as="geometry">
            <mxPoint x="1575" y="350" as="sourcePoint" />
          </mxGeometry>
        </mxCell>
        <mxCell id="c5JYzMj96R1MtIDLFCYo-6" value="Есть записи к обработке" style="edgeLabel;html=1;align=center;verticalAlign=middle;resizable=0;points=[];" vertex="1" connectable="0" parent="c5JYzMj96R1MtIDLFCYo-5">
          <mxGeometry x="0.1727" relative="1" as="geometry">
            <mxPoint as="offset" />
          </mxGeometry>
        </mxCell>
        <mxCell id="c5JYzMj96R1MtIDLFCYo-7" style="edgeStyle=orthogonalEdgeStyle;rounded=0;orthogonalLoop=1;jettySize=auto;html=1;exitX=0.5;exitY=1;exitDx=0;exitDy=0;entryX=0.5;entryY=0;entryDx=0;entryDy=0;" edge="1" parent="1" source="c5JYzMj96R1MtIDLFCYo-8" target="c5JYzMj96R1MtIDLFCYo-53">
          <mxGeometry relative="1" as="geometry" />
        </mxCell>
        <mxCell id="c5JYzMj96R1MtIDLFCYo-8" value="Обход списка переходов статусов для определения конечного списка следующих статусов с учетом доступов" style="whiteSpace=wrap;html=1;verticalAlign=top;rounded=1;arcSize=10;dashed=0;" vertex="1" parent="1">
          <mxGeometry x="1491.25" y="160" width="167.5" height="80" as="geometry" />
        </mxCell>
        <mxCell id="c5JYzMj96R1MtIDLFCYo-9" style="edgeStyle=orthogonalEdgeStyle;rounded=0;orthogonalLoop=1;jettySize=auto;html=1;exitX=0.5;exitY=1;exitDx=0;exitDy=0;entryX=0.5;entryY=0;entryDx=0;entryDy=0;" edge="1" parent="1" source="c5JYzMj96R1MtIDLFCYo-10" target="c5JYzMj96R1MtIDLFCYo-14">
          <mxGeometry relative="1" as="geometry" />
        </mxCell>
        <mxCell id="c5JYzMj96R1MtIDLFCYo-10" value="Для перехода указан список работников" style="whiteSpace=wrap;html=1;verticalAlign=top;rounded=1;arcSize=10;dashed=0;" vertex="1" parent="1">
          <mxGeometry x="1625" y="390" width="120" height="60" as="geometry" />
        </mxCell>
        <mxCell id="c5JYzMj96R1MtIDLFCYo-11" value="Да" style="edgeStyle=orthogonalEdgeStyle;rounded=0;orthogonalLoop=1;jettySize=auto;html=1;exitX=0.5;exitY=1;exitDx=0;exitDy=0;entryX=0.5;entryY=0;entryDx=0;entryDy=0;" edge="1" parent="1" source="c5JYzMj96R1MtIDLFCYo-14" target="c5JYzMj96R1MtIDLFCYo-16">
          <mxGeometry relative="1" as="geometry" />
        </mxCell>
        <mxCell id="c5JYzMj96R1MtIDLFCYo-12" style="edgeStyle=orthogonalEdgeStyle;rounded=0;orthogonalLoop=1;jettySize=auto;html=1;exitX=1;exitY=0.5;exitDx=0;exitDy=0;entryX=1;entryY=0.5;entryDx=0;entryDy=0;" edge="1" parent="1" source="c5JYzMj96R1MtIDLFCYo-14" target="c5JYzMj96R1MtIDLFCYo-8">
          <mxGeometry relative="1" as="geometry">
            <Array as="points">
              <mxPoint x="1790" y="485" />
              <mxPoint x="1790" y="200" />
            </Array>
          </mxGeometry>
        </mxCell>
        <mxCell id="c5JYzMj96R1MtIDLFCYo-13" value="Нет" style="edgeLabel;html=1;align=center;verticalAlign=middle;resizable=0;points=[];" vertex="1" connectable="0" parent="c5JYzMj96R1MtIDLFCYo-12">
          <mxGeometry x="0.0143" relative="1" as="geometry">
            <mxPoint as="offset" />
          </mxGeometry>
        </mxCell>
        <mxCell id="c5JYzMj96R1MtIDLFCYo-14" value="" style="rhombus;" vertex="1" parent="1">
          <mxGeometry x="1670" y="470" width="30" height="30" as="geometry" />
        </mxCell>
        <mxCell id="c5JYzMj96R1MtIDLFCYo-15" style="edgeStyle=orthogonalEdgeStyle;rounded=0;orthogonalLoop=1;jettySize=auto;html=1;exitX=0.5;exitY=1;exitDx=0;exitDy=0;entryX=0.5;entryY=0;entryDx=0;entryDy=0;" edge="1" parent="1" source="c5JYzMj96R1MtIDLFCYo-16" target="c5JYzMj96R1MtIDLFCYo-20">
          <mxGeometry relative="1" as="geometry" />
        </mxCell>
        <mxCell id="c5JYzMj96R1MtIDLFCYo-16" value="Проверка: пользователь входит в список работников (прямые исключения для работников)" style="whiteSpace=wrap;html=1;verticalAlign=top;rounded=1;arcSize=10;dashed=0;" vertex="1" parent="1">
          <mxGeometry x="1700" y="620" width="140" height="80" as="geometry" />
        </mxCell>
        <mxCell id="c5JYzMj96R1MtIDLFCYo-17" value="Да" style="edgeStyle=orthogonalEdgeStyle;rounded=0;orthogonalLoop=1;jettySize=auto;html=1;exitX=1;exitY=0.5;exitDx=0;exitDy=0;entryX=0.5;entryY=0;entryDx=0;entryDy=0;" edge="1" parent="1" source="c5JYzMj96R1MtIDLFCYo-20" target="c5JYzMj96R1MtIDLFCYo-22">
          <mxGeometry relative="1" as="geometry" />
        </mxCell>
        <mxCell id="c5JYzMj96R1MtIDLFCYo-18" style="edgeStyle=orthogonalEdgeStyle;rounded=0;orthogonalLoop=1;jettySize=auto;html=1;exitX=0;exitY=0.5;exitDx=0;exitDy=0;" edge="1" parent="1" source="c5JYzMj96R1MtIDLFCYo-20" target="c5JYzMj96R1MtIDLFCYo-24">
          <mxGeometry relative="1" as="geometry" />
        </mxCell>
        <mxCell id="c5JYzMj96R1MtIDLFCYo-19" value="Нет" style="edgeLabel;html=1;align=center;verticalAlign=middle;resizable=0;points=[];" vertex="1" connectable="0" parent="c5JYzMj96R1MtIDLFCYo-18">
          <mxGeometry x="-0.4764" y="-2" relative="1" as="geometry">
            <mxPoint y="1" as="offset" />
          </mxGeometry>
        </mxCell>
        <mxCell id="c5JYzMj96R1MtIDLFCYo-20" value="" style="rhombus;" vertex="1" parent="1">
          <mxGeometry x="1755" y="720" width="30" height="30" as="geometry" />
        </mxCell>
        <mxCell id="c5JYzMj96R1MtIDLFCYo-21" style="edgeStyle=orthogonalEdgeStyle;rounded=0;orthogonalLoop=1;jettySize=auto;html=1;exitX=1;exitY=0.5;exitDx=0;exitDy=0;entryX=1;entryY=0.25;entryDx=0;entryDy=0;" edge="1" parent="1" source="c5JYzMj96R1MtIDLFCYo-22" target="c5JYzMj96R1MtIDLFCYo-8">
          <mxGeometry relative="1" as="geometry" />
        </mxCell>
        <mxCell id="c5JYzMj96R1MtIDLFCYo-22" value="Конечный статус перехода включается в результирующий список" style="whiteSpace=wrap;html=1;verticalAlign=top;rounded=1;arcSize=10;dashed=0;" vertex="1" parent="1">
          <mxGeometry x="1890" y="1050" width="140" height="60" as="geometry" />
        </mxCell>
        <mxCell id="c5JYzMj96R1MtIDLFCYo-23" style="edgeStyle=orthogonalEdgeStyle;rounded=0;orthogonalLoop=1;jettySize=auto;html=1;exitX=0.5;exitY=1;exitDx=0;exitDy=0;entryX=0.5;entryY=0;entryDx=0;entryDy=0;" edge="1" parent="1" source="c5JYzMj96R1MtIDLFCYo-24" target="c5JYzMj96R1MtIDLFCYo-26">
          <mxGeometry relative="1" as="geometry" />
        </mxCell>
        <mxCell id="c5JYzMj96R1MtIDLFCYo-24" value="Формируется список ролей, закрепленных за переходом статусов. Сортируется по признаку включать/исключать: сначала включать, потом исключать. Т.е. исключение имеет приоритет." style="whiteSpace=wrap;html=1;verticalAlign=top;rounded=1;arcSize=10;dashed=0;" vertex="1" parent="1">
          <mxGeometry x="1430" y="805" width="240" height="95" as="geometry" />
        </mxCell>
        <mxCell id="c5JYzMj96R1MtIDLFCYo-25" style="edgeStyle=orthogonalEdgeStyle;rounded=0;orthogonalLoop=1;jettySize=auto;html=1;exitX=0.5;exitY=1;exitDx=0;exitDy=0;entryX=0.5;entryY=0;entryDx=0;entryDy=0;" edge="1" parent="1" source="c5JYzMj96R1MtIDLFCYo-26" target="c5JYzMj96R1MtIDLFCYo-31">
          <mxGeometry relative="1" as="geometry" />
        </mxCell>
        <mxCell id="c5JYzMj96R1MtIDLFCYo-26" value="&lt;div&gt;Список пустой&lt;/div&gt;" style="whiteSpace=wrap;html=1;verticalAlign=top;rounded=1;arcSize=10;dashed=0;" vertex="1" parent="1">
          <mxGeometry x="1480" y="920" width="140" height="60" as="geometry" />
        </mxCell>
        <mxCell id="c5JYzMj96R1MtIDLFCYo-27" style="edgeStyle=orthogonalEdgeStyle;rounded=0;orthogonalLoop=1;jettySize=auto;html=1;exitX=1;exitY=0.5;exitDx=0;exitDy=0;entryX=0.5;entryY=0;entryDx=0;entryDy=0;" edge="1" parent="1" source="c5JYzMj96R1MtIDLFCYo-31" target="c5JYzMj96R1MtIDLFCYo-33">
          <mxGeometry relative="1" as="geometry" />
        </mxCell>
        <mxCell id="c5JYzMj96R1MtIDLFCYo-28" value="Да" style="edgeLabel;html=1;align=center;verticalAlign=middle;resizable=0;points=[];" vertex="1" connectable="0" parent="c5JYzMj96R1MtIDLFCYo-27">
          <mxGeometry x="-0.0889" y="-1" relative="1" as="geometry">
            <mxPoint as="offset" />
          </mxGeometry>
        </mxCell>
        <mxCell id="c5JYzMj96R1MtIDLFCYo-29" style="edgeStyle=orthogonalEdgeStyle;rounded=0;orthogonalLoop=1;jettySize=auto;html=1;exitX=0;exitY=0.5;exitDx=0;exitDy=0;" edge="1" parent="1" source="c5JYzMj96R1MtIDLFCYo-31" target="c5JYzMj96R1MtIDLFCYo-51">
          <mxGeometry relative="1" as="geometry" />
        </mxCell>
        <mxCell id="c5JYzMj96R1MtIDLFCYo-30" value="Нет" style="edgeLabel;html=1;align=center;verticalAlign=middle;resizable=0;points=[];" vertex="1" connectable="0" parent="c5JYzMj96R1MtIDLFCYo-29">
          <mxGeometry x="0.0051" y="2" relative="1" as="geometry">
            <mxPoint as="offset" />
          </mxGeometry>
        </mxCell>
        <mxCell id="c5JYzMj96R1MtIDLFCYo-31" value="" style="rhombus;" vertex="1" parent="1">
          <mxGeometry x="1535" y="1000" width="30" height="30" as="geometry" />
        </mxCell>
        <mxCell id="c5JYzMj96R1MtIDLFCYo-32" style="edgeStyle=orthogonalEdgeStyle;rounded=0;orthogonalLoop=1;jettySize=auto;html=1;exitX=1;exitY=0.5;exitDx=0;exitDy=0;entryX=0;entryY=0.5;entryDx=0;entryDy=0;" edge="1" parent="1" source="c5JYzMj96R1MtIDLFCYo-33" target="c5JYzMj96R1MtIDLFCYo-22">
          <mxGeometry relative="1" as="geometry" />
        </mxCell>
        <mxCell id="c5JYzMj96R1MtIDLFCYo-33" value="Переход разрешен всем ролям по умолчанию" style="whiteSpace=wrap;html=1;verticalAlign=top;rounded=1;arcSize=10;dashed=0;" vertex="1" parent="1">
          <mxGeometry x="1580" y="1050" width="140" height="60" as="geometry" />
        </mxCell>
        <mxCell id="c5JYzMj96R1MtIDLFCYo-34" style="edgeStyle=orthogonalEdgeStyle;rounded=0;orthogonalLoop=1;jettySize=auto;html=1;exitX=0.5;exitY=1;exitDx=0;exitDy=0;entryX=0.5;entryY=0;entryDx=0;entryDy=0;" edge="1" parent="1" source="c5JYzMj96R1MtIDLFCYo-35" target="c5JYzMj96R1MtIDLFCYo-39">
          <mxGeometry relative="1" as="geometry" />
        </mxCell>
        <mxCell id="c5JYzMj96R1MtIDLFCYo-35" value="Роль имеет разрешениее для перехода в статус" style="whiteSpace=wrap;html=1;verticalAlign=top;rounded=1;arcSize=10;dashed=0;" vertex="1" parent="1">
          <mxGeometry x="1480" y="1279" width="140" height="60" as="geometry" />
        </mxCell>
        <mxCell id="c5JYzMj96R1MtIDLFCYo-36" style="edgeStyle=orthogonalEdgeStyle;rounded=0;orthogonalLoop=1;jettySize=auto;html=1;exitX=1;exitY=0.5;exitDx=0;exitDy=0;entryX=0.5;entryY=0;entryDx=0;entryDy=0;" edge="1" parent="1" source="c5JYzMj96R1MtIDLFCYo-39" target="c5JYzMj96R1MtIDLFCYo-41">
          <mxGeometry relative="1" as="geometry" />
        </mxCell>
        <mxCell id="c5JYzMj96R1MtIDLFCYo-37" value="Да" style="edgeLabel;html=1;align=center;verticalAlign=middle;resizable=0;points=[];" vertex="1" connectable="0" parent="c5JYzMj96R1MtIDLFCYo-36">
          <mxGeometry x="-0.475" y="-1" relative="1" as="geometry">
            <mxPoint as="offset" />
          </mxGeometry>
        </mxCell>
        <mxCell id="c5JYzMj96R1MtIDLFCYo-38" style="edgeStyle=orthogonalEdgeStyle;rounded=0;orthogonalLoop=1;jettySize=auto;html=1;exitX=0;exitY=0.5;exitDx=0;exitDy=0;entryX=0.5;entryY=0;entryDx=0;entryDy=0;" edge="1" parent="1" source="c5JYzMj96R1MtIDLFCYo-39" target="c5JYzMj96R1MtIDLFCYo-49">
          <mxGeometry relative="1" as="geometry" />
        </mxCell>
        <mxCell id="c5JYzMj96R1MtIDLFCYo-39" value="" style="rhombus;" vertex="1" parent="1">
          <mxGeometry x="1535" y="1359" width="30" height="30" as="geometry" />
        </mxCell>
        <mxCell id="c5JYzMj96R1MtIDLFCYo-40" style="edgeStyle=orthogonalEdgeStyle;rounded=0;orthogonalLoop=1;jettySize=auto;html=1;exitX=0.5;exitY=1;exitDx=0;exitDy=0;entryX=0.5;entryY=0;entryDx=0;entryDy=0;" edge="1" parent="1" source="c5JYzMj96R1MtIDLFCYo-41" target="c5JYzMj96R1MtIDLFCYo-45">
          <mxGeometry relative="1" as="geometry" />
        </mxCell>
        <mxCell id="c5JYzMj96R1MtIDLFCYo-41" value="У пользователя роль, которая в списке разрешений" style="whiteSpace=wrap;html=1;verticalAlign=top;rounded=1;arcSize=10;dashed=0;" vertex="1" parent="1">
          <mxGeometry x="1565" y="1409" width="140" height="60" as="geometry" />
        </mxCell>
        <mxCell id="c5JYzMj96R1MtIDLFCYo-42" value="Да" style="edgeStyle=orthogonalEdgeStyle;rounded=0;orthogonalLoop=1;jettySize=auto;html=1;exitX=0.5;exitY=1;exitDx=0;exitDy=0;entryX=0;entryY=0.5;entryDx=0;entryDy=0;" edge="1" parent="1" source="c5JYzMj96R1MtIDLFCYo-45" target="c5JYzMj96R1MtIDLFCYo-47">
          <mxGeometry relative="1" as="geometry" />
        </mxCell>
        <mxCell id="c5JYzMj96R1MtIDLFCYo-43" style="edgeStyle=orthogonalEdgeStyle;rounded=0;orthogonalLoop=1;jettySize=auto;html=1;exitX=1;exitY=0.5;exitDx=0;exitDy=0;entryX=1;entryY=0.75;entryDx=0;entryDy=0;" edge="1" parent="1" source="c5JYzMj96R1MtIDLFCYo-45" target="c5JYzMj96R1MtIDLFCYo-51">
          <mxGeometry relative="1" as="geometry">
            <Array as="points">
              <mxPoint x="1730" y="1524" />
              <mxPoint x="1730" y="1135" />
            </Array>
          </mxGeometry>
        </mxCell>
        <mxCell id="c5JYzMj96R1MtIDLFCYo-44" value="Нет" style="edgeLabel;html=1;align=center;verticalAlign=middle;resizable=0;points=[];" vertex="1" connectable="0" parent="c5JYzMj96R1MtIDLFCYo-43">
          <mxGeometry x="-0.1954" y="-1" relative="1" as="geometry">
            <mxPoint as="offset" />
          </mxGeometry>
        </mxCell>
        <mxCell id="c5JYzMj96R1MtIDLFCYo-45" value="" style="rhombus;" vertex="1" parent="1">
          <mxGeometry x="1620" y="1509" width="30" height="30" as="geometry" />
        </mxCell>
        <mxCell id="c5JYzMj96R1MtIDLFCYo-46" style="edgeStyle=orthogonalEdgeStyle;rounded=0;orthogonalLoop=1;jettySize=auto;html=1;exitX=1;exitY=0.5;exitDx=0;exitDy=0;entryX=1;entryY=0.5;entryDx=0;entryDy=0;" edge="1" parent="1" source="c5JYzMj96R1MtIDLFCYo-47" target="c5JYzMj96R1MtIDLFCYo-51">
          <mxGeometry relative="1" as="geometry" />
        </mxCell>
        <mxCell id="c5JYzMj96R1MtIDLFCYo-47" value="Помечаем статус как доступный" style="whiteSpace=wrap;html=1;verticalAlign=top;rounded=1;arcSize=10;dashed=0;" vertex="1" parent="1">
          <mxGeometry x="1658.75" y="1610" width="140" height="60" as="geometry" />
        </mxCell>
        <mxCell id="c5JYzMj96R1MtIDLFCYo-48" style="edgeStyle=orthogonalEdgeStyle;rounded=0;orthogonalLoop=1;jettySize=auto;html=1;exitX=0;exitY=0.5;exitDx=0;exitDy=0;entryX=0;entryY=0.5;entryDx=0;entryDy=0;" edge="1" parent="1" source="c5JYzMj96R1MtIDLFCYo-49" target="c5JYzMj96R1MtIDLFCYo-8">
          <mxGeometry relative="1" as="geometry" />
        </mxCell>
        <mxCell id="c5JYzMj96R1MtIDLFCYo-49" value="Удаление статуса из доступных (если он там есть)" style="whiteSpace=wrap;html=1;verticalAlign=top;rounded=1;arcSize=10;dashed=0;" vertex="1" parent="1">
          <mxGeometry x="1370" y="1409" width="140" height="70" as="geometry" />
        </mxCell>
        <mxCell id="c5JYzMj96R1MtIDLFCYo-50" style="edgeStyle=orthogonalEdgeStyle;rounded=0;orthogonalLoop=1;jettySize=auto;html=1;exitX=0.5;exitY=1;exitDx=0;exitDy=0;entryX=0.5;entryY=0;entryDx=0;entryDy=0;" edge="1" parent="1" source="c5JYzMj96R1MtIDLFCYo-51" target="c5JYzMj96R1MtIDLFCYo-56">
          <mxGeometry relative="1" as="geometry" />
        </mxCell>
        <mxCell id="c5JYzMj96R1MtIDLFCYo-51" value="Обработка списка ролей" style="whiteSpace=wrap;html=1;verticalAlign=top;rounded=1;arcSize=10;dashed=0;" vertex="1" parent="1">
          <mxGeometry x="1410" y="1090" width="140" height="60" as="geometry" />
        </mxCell>
        <mxCell id="c5JYzMj96R1MtIDLFCYo-52" style="edgeStyle=orthogonalEdgeStyle;rounded=0;orthogonalLoop=1;jettySize=auto;html=1;exitX=0;exitY=0.5;exitDx=0;exitDy=0;entryX=0.5;entryY=0;entryDx=0;entryDy=0;" edge="1" parent="1" source="c5JYzMj96R1MtIDLFCYo-53" target="c5JYzMj96R1MtIDLFCYo-58">
          <mxGeometry relative="1" as="geometry">
            <mxPoint x="1475.9999999999995" y="400" as="targetPoint" />
          </mxGeometry>
        </mxCell>
        <mxCell id="c5JYzMj96R1MtIDLFCYo-53" value="" style="rhombus;" vertex="1" parent="1">
          <mxGeometry x="1560" y="285" width="30" height="30" as="geometry" />
        </mxCell>
        <mxCell id="c5JYzMj96R1MtIDLFCYo-54" value="Список не закончен" style="edgeStyle=orthogonalEdgeStyle;rounded=0;orthogonalLoop=1;jettySize=auto;html=1;exitX=1;exitY=0.5;exitDx=0;exitDy=0;entryX=0.5;entryY=0;entryDx=0;entryDy=0;" edge="1" parent="1" source="c5JYzMj96R1MtIDLFCYo-56" target="c5JYzMj96R1MtIDLFCYo-35">
          <mxGeometry relative="1" as="geometry" />
        </mxCell>
        <mxCell id="c5JYzMj96R1MtIDLFCYo-55" style="edgeStyle=orthogonalEdgeStyle;rounded=0;orthogonalLoop=1;jettySize=auto;html=1;exitX=0;exitY=0.5;exitDx=0;exitDy=0;entryX=0;entryY=0.75;entryDx=0;entryDy=0;" edge="1" parent="1" source="c5JYzMj96R1MtIDLFCYo-56" target="c5JYzMj96R1MtIDLFCYo-8">
          <mxGeometry relative="1" as="geometry">
            <Array as="points">
              <mxPoint x="1390" y="1205" />
              <mxPoint x="1390" y="220" />
            </Array>
          </mxGeometry>
        </mxCell>
        <mxCell id="c5JYzMj96R1MtIDLFCYo-56" value="" style="rhombus;" vertex="1" parent="1">
          <mxGeometry x="1465" y="1190" width="30" height="30" as="geometry" />
        </mxCell>
        <mxCell id="c5JYzMj96R1MtIDLFCYo-57" style="edgeStyle=orthogonalEdgeStyle;rounded=0;orthogonalLoop=1;jettySize=auto;html=1;exitX=0.5;exitY=1;exitDx=0;exitDy=0;entryX=0.5;entryY=0;entryDx=0;entryDy=0;" edge="1" parent="1" source="c5JYzMj96R1MtIDLFCYo-58" target="c5JYzMj96R1MtIDLFCYo-59">
          <mxGeometry relative="1" as="geometry" />
        </mxCell>
        <mxCell id="c5JYzMj96R1MtIDLFCYo-58" value="&lt;div&gt;Вернуть результирующий список статусов&lt;/div&gt;" style="whiteSpace=wrap;html=1;verticalAlign=top;rounded=1;arcSize=10;dashed=0;" vertex="1" parent="1">
          <mxGeometry x="1410" y="420" width="140" height="60" as="geometry" />
        </mxCell>
        <mxCell id="c5JYzMj96R1MtIDLFCYo-59" value="" style="ellipse;html=1;shape=endState;fillColor=#000000;strokeColor=#000000;" vertex="1" parent="1">
          <mxGeometry x="1465" y="500" width="30" height="30" as="geometry" />
        </mxCell>
      </root>
    </mxGraphModel>
  </diagram>
  <diagram id="LXSazGGZcjS6EqAl17jo" name="WorkflowTypes">
    <mxGraphModel dx="1422" dy="752" grid="1" gridSize="10" guides="1" tooltips="1" connect="1" arrows="1" fold="1" page="1" pageScale="1" pageWidth="850" pageHeight="1100" math="0" shadow="0">
      <root>
        <mxCell id="0" />
        <mxCell id="1" parent="0" />
        <mxCell id="aT0I-s7yTr1coh-lzJiM-1" value="&lt;b&gt;Типы маршрутов документов&lt;/b&gt;" style="strokeWidth=1;shadow=0;dashed=0;align=center;html=1;shape=mxgraph.mockup.containers.window;align=left;verticalAlign=top;spacingLeft=8;strokeColor2=#008cff;strokeColor3=#c4c4c4;fontColor=#666666;mainText=;fontSize=17;labelBackgroundColor=none;" vertex="1" parent="1">
          <mxGeometry x="100" y="40" width="1220" height="520" as="geometry" />
        </mxCell>
        <mxCell id="aT0I-s7yTr1coh-lzJiM-2" value="&lt;table style=&quot;font-size:1em;width:100%;height:100%;&quot; cellspacing=&quot;0&quot; cellpadding=&quot;4&quot; border=&quot;1&quot;&gt;&lt;tbody&gt;&lt;tr&gt;&lt;th&gt;Код&lt;/th&gt;&lt;th&gt;Описание&lt;/th&gt;&lt;/tr&gt;&lt;tr&gt;&lt;td&gt;WO_SIMPLE&lt;br&gt;&lt;/td&gt;&lt;td&gt;Наряд-задание простое&lt;br&gt;&lt;/td&gt;&lt;/tr&gt;&lt;tr&gt;&lt;td&gt;&lt;font color=&quot;#003300&quot;&gt;&lt;span style=&quot;background-color: transparent;&quot;&gt;&lt;b&gt;SAFETY_INSPECTION&lt;br&gt;&lt;/b&gt;&lt;/span&gt;&lt;/font&gt;&lt;/td&gt;&lt;td&gt;&lt;font color=&quot;#003300&quot;&gt;&lt;span style=&quot;background-color: transparent;&quot;&gt;&lt;b&gt;Инспекция по безопасности&lt;br&gt;&lt;/b&gt;&lt;/span&gt;&lt;/font&gt;&lt;/td&gt;&lt;/tr&gt;&lt;tr&gt;&lt;td&gt;ASSETS_INVENTORY&lt;br&gt;&lt;/td&gt;&lt;td&gt;Задание на инвентаризацию&lt;br&gt;&lt;/td&gt;&lt;/tr&gt;&lt;/tbody&gt;&lt;/table&gt; " style="verticalAlign=top;align=left;overflow=fill;fontSize=12;fontFamily=Helvetica;html=1" vertex="1" parent="1">
          <mxGeometry x="120" y="100" width="320" height="110" as="geometry" />
        </mxCell>
        <mxCell id="aT0I-s7yTr1coh-lzJiM-4" value="" style="shape=mxgraph.mockup.containers.marginRect;rectMarginTop=10;strokeColor=#666666;strokeWidth=1;dashed=0;rounded=1;arcSize=5;recursiveResize=0;" vertex="1" parent="1">
          <mxGeometry x="460" y="100" width="350" height="410" as="geometry" />
        </mxCell>
        <mxCell id="aT0I-s7yTr1coh-lzJiM-5" value="Переходы между статусами" style="shape=rect;strokeColor=none;fillColor=#008cff;strokeWidth=1;dashed=0;rounded=1;arcSize=20;fontColor=#ffffff;fontSize=17;spacing=2;spacingTop=-2;align=left;autosize=1;spacingLeft=4;resizeWidth=0;resizeHeight=0;perimeter=none;" vertex="1" parent="aT0I-s7yTr1coh-lzJiM-4">
          <mxGeometry x="5" width="250" height="30" as="geometry" />
        </mxCell>
        <mxCell id="aT0I-s7yTr1coh-lzJiM-6" value="&lt;table style=&quot;font-size:1em;width:100%;height:100%;&quot; cellspacing=&quot;0&quot; cellpadding=&quot;4&quot; border=&quot;1&quot;&gt;&lt;tbody&gt;&lt;tr&gt;&lt;th&gt;Текущий статус&lt;br&gt;&lt;/th&gt;&lt;th&gt;Следующий статус&lt;br&gt;&lt;/th&gt;&lt;/tr&gt;&lt;tr&gt;&lt;td&gt;&lt;br&gt;&lt;/td&gt;&lt;td&gt;Новый&lt;br&gt;&lt;/td&gt;&lt;/tr&gt;&lt;tr&gt;&lt;td&gt;Новый&lt;br&gt;&lt;/td&gt;&lt;td&gt;Запланирован&lt;br&gt;&lt;/td&gt;&lt;/tr&gt;&lt;tr&gt;&lt;td&gt;Новый&lt;br&gt;&lt;/td&gt;&lt;td&gt;Удален&lt;br&gt;&lt;/td&gt;&lt;/tr&gt;&lt;tr&gt;&lt;td&gt;&lt;font color=&quot;#003300&quot;&gt;&lt;b&gt;Запланирован&lt;/b&gt;&lt;/font&gt;&lt;/td&gt;&lt;td&gt;&lt;font color=&quot;#003300&quot;&gt;&lt;b&gt;К исполнению&lt;br&gt;&lt;/b&gt;&lt;/font&gt;&lt;/td&gt;&lt;/tr&gt;&lt;tr&gt;&lt;td&gt;Запланирован&lt;br&gt;&lt;/td&gt;&lt;td&gt;Отменен&lt;/td&gt;&lt;/tr&gt;&lt;tr&gt;&lt;td&gt;К исполнению&lt;br&gt;&lt;/td&gt;&lt;td&gt;В работе&lt;br&gt;&lt;/td&gt;&lt;/tr&gt;&lt;tr&gt;&lt;td&gt;К исполнению&lt;br&gt;&lt;/td&gt;&lt;td&gt;Отменен&lt;br&gt;&lt;/td&gt;&lt;/tr&gt;&lt;tr&gt;&lt;td&gt;В работе&lt;br&gt;&lt;/td&gt;&lt;td&gt;Выполнен&lt;br&gt;&lt;/td&gt;&lt;/tr&gt;&lt;tr&gt;&lt;td&gt;В работе&lt;span style=&quot;white-space: pre;&quot;&gt;	&lt;/span&gt;&lt;br&gt;&lt;/td&gt;&lt;td&gt;Отменен&lt;br&gt;&lt;/td&gt;&lt;/tr&gt;&lt;tr&gt;&lt;td&gt;Выполнен&lt;/td&gt;&lt;td&gt;На проверке&lt;br&gt;&lt;/td&gt;&lt;/tr&gt;&lt;tr&gt;&lt;td&gt;На проверке&lt;br&gt;&lt;/td&gt;&lt;td&gt;Закрыт&lt;br&gt;&lt;/td&gt;&lt;/tr&gt;&lt;tr&gt;&lt;td&gt;&lt;br&gt;&lt;/td&gt;&lt;td&gt;&lt;br&gt;&lt;/td&gt;&lt;/tr&gt;&lt;tr&gt;&lt;td&gt;&lt;br&gt;&lt;/td&gt;&lt;td&gt;&lt;br&gt;&lt;/td&gt;&lt;/tr&gt;&lt;/tbody&gt;&lt;/table&gt; " style="verticalAlign=top;align=left;overflow=fill;fontSize=12;fontFamily=Helvetica;html=1" vertex="1" parent="aT0I-s7yTr1coh-lzJiM-4">
          <mxGeometry x="15" y="40" width="320" height="350" as="geometry" />
        </mxCell>
        <mxCell id="aT0I-s7yTr1coh-lzJiM-7" value="" style="shape=mxgraph.mockup.containers.marginRect;rectMarginTop=10;strokeColor=#666666;strokeWidth=1;dashed=0;rounded=1;arcSize=5;recursiveResize=0;" vertex="1" parent="1">
          <mxGeometry x="830" y="100" width="350" height="200" as="geometry" />
        </mxCell>
        <mxCell id="aT0I-s7yTr1coh-lzJiM-8" value="Роли" style="shape=rect;strokeColor=none;fillColor=#008cff;strokeWidth=1;dashed=0;rounded=1;arcSize=20;fontColor=#ffffff;fontSize=17;spacing=2;spacingTop=-2;align=left;autosize=1;spacingLeft=4;resizeWidth=0;resizeHeight=0;perimeter=none;" vertex="1" parent="aT0I-s7yTr1coh-lzJiM-7">
          <mxGeometry x="5" width="60" height="30" as="geometry" />
        </mxCell>
        <mxCell id="aT0I-s7yTr1coh-lzJiM-9" value="&lt;table style=&quot;font-size:1em;width:100%;height:100%;&quot; cellspacing=&quot;0&quot; cellpadding=&quot;4&quot; border=&quot;1&quot;&gt;&lt;tbody&gt;&lt;tr&gt;&lt;th&gt;Роль&lt;br&gt;&lt;/th&gt;&lt;td&gt;Разрешено&lt;br&gt;&lt;/td&gt;&lt;/tr&gt;&lt;tr&gt;&lt;td&gt;Планировщик&lt;br&gt;&lt;/td&gt;&lt;td&gt;&lt;br&gt;&lt;/td&gt;&lt;/tr&gt;&lt;tr&gt;&lt;td&gt;&lt;br&gt;&lt;/td&gt;&lt;td&gt;&lt;br&gt;&lt;/td&gt;&lt;/tr&gt;&lt;tr&gt;&lt;td&gt;&lt;br&gt;&lt;/td&gt;&lt;td&gt;&lt;br&gt;&lt;/td&gt;&lt;/tr&gt;&lt;tr&gt;&lt;td&gt;&lt;br&gt;&lt;/td&gt;&lt;td&gt;&lt;br&gt;&lt;/td&gt;&lt;/tr&gt;&lt;tr&gt;&lt;td&gt;&lt;br&gt;&lt;/td&gt;&lt;td&gt;&lt;br&gt;&lt;/td&gt;&lt;/tr&gt;&lt;/tbody&gt;&lt;/table&gt; " style="verticalAlign=top;align=left;overflow=fill;fontSize=12;fontFamily=Helvetica;html=1" vertex="1" parent="aT0I-s7yTr1coh-lzJiM-7">
          <mxGeometry x="15" y="40" width="320" height="150" as="geometry" />
        </mxCell>
        <mxCell id="aT0I-s7yTr1coh-lzJiM-15" value="" style="strokeWidth=1;shadow=0;dashed=0;align=center;html=1;shape=mxgraph.mockup.forms.rrect;rSize=0;fillColor=#00CC00;strokeColor=#999999;gradientColor=none;align=left;spacingLeft=4;fontSize=17;fontColor=#666666;labelPosition=right;labelBackgroundColor=none;" vertex="1" parent="aT0I-s7yTr1coh-lzJiM-7">
          <mxGeometry x="250" y="70" width="15" height="15" as="geometry" />
        </mxCell>
        <mxCell id="aT0I-s7yTr1coh-lzJiM-10" value="" style="shape=mxgraph.mockup.containers.marginRect;rectMarginTop=10;strokeColor=#666666;strokeWidth=1;dashed=0;rounded=1;arcSize=5;recursiveResize=0;" vertex="1" parent="1">
          <mxGeometry x="830" y="310" width="350" height="200" as="geometry" />
        </mxCell>
        <mxCell id="aT0I-s7yTr1coh-lzJiM-11" value="Работники" style="shape=rect;strokeColor=none;fillColor=#008cff;strokeWidth=1;dashed=0;rounded=1;arcSize=20;fontColor=#ffffff;fontSize=17;spacing=2;spacingTop=-2;align=left;autosize=1;spacingLeft=4;resizeWidth=0;resizeHeight=0;perimeter=none;" vertex="1" parent="aT0I-s7yTr1coh-lzJiM-10">
          <mxGeometry x="5" width="110" height="30" as="geometry" />
        </mxCell>
        <mxCell id="aT0I-s7yTr1coh-lzJiM-12" value="&lt;table style=&quot;font-size:1em;width:100%;height:100%;&quot; cellspacing=&quot;0&quot; cellpadding=&quot;4&quot; border=&quot;1&quot;&gt;&lt;tbody&gt;&lt;tr&gt;&lt;th&gt;Работник&lt;br&gt;&lt;/th&gt;&lt;/tr&gt;&lt;tr&gt;&lt;td&gt;Шамуратов Канат&lt;br&gt;&lt;/td&gt;&lt;/tr&gt;&lt;tr&gt;&lt;td&gt;&lt;br&gt;&lt;/td&gt;&lt;/tr&gt;&lt;tr&gt;&lt;td&gt;&lt;br&gt;&lt;/td&gt;&lt;/tr&gt;&lt;tr&gt;&lt;td&gt;&lt;br&gt;&lt;/td&gt;&lt;/tr&gt;&lt;tr&gt;&lt;td&gt;&lt;br&gt;&lt;/td&gt;&lt;/tr&gt;&lt;/tbody&gt;&lt;/table&gt; " style="verticalAlign=top;align=left;overflow=fill;fontSize=12;fontFamily=Helvetica;html=1" vertex="1" parent="aT0I-s7yTr1coh-lzJiM-10">
          <mxGeometry x="15" y="40" width="320" height="150" as="geometry" />
        </mxCell>
      </root>
    </mxGraphModel>
  </diagram>
</mxfile>
